<?xml version="1.0" encoding="utf-8"?>
<!-- Generator: Adobe Illustrator 23.0.1, SVG Export Plug-In . SVG Version: 6.00 Build 0)  -->
<svg version="1.1" id="Layer_1" xmlns="http://www.w3.org/2000/svg" xmlns:xlink="http://www.w3.org/1999/xlink" x="0px" y="0px"
	 viewBox="0 0 281 229" style="enable-background:new 0 0 281 229;" xml:space="preserve">
<style type="text/css">
	.st0{fill:#FFFFFF;}
	.st1{font-family:'Impact';}
	.st2{font-size:72.8289px;}
	.st3{fill-rule:evenodd;clip-rule:evenodd;fill:#FFFFFF;}
	.st4{fill-rule:evenodd;clip-rule:evenodd;fill:#FC6A23;}
	.st5{font-size:77.0674px;}
	.st6{fill:#FC6A23;}
	.st7{font-size:74.7451px;}
</style>
<text transform="matrix(0.9927 -0.1206 0.1206 0.9927 8.8335 160.0859)" class="st0 st1 st2">GAS</text>
<path class="st3" d="M62.6,20.2l3.3,3.2c-1.1,2-7.5,7.5-9.8,9.4l-9.5,9.4c-1.7,1.7-3,3-4.6,4.8l-9.3,9.6c-1.9,2.2-1.7,3.2-4.9,5
	l-3.1-3.4c-1.1,0.9-1.6,1.3-2.4,2.9l13.4,13c1-0.8,3.5-4.8,4.4-6.2c1.6-2.3,2.6-4,4.4-6.2l7.3-8.9c1.1-1.2,1.9-1.4,3-2.5
	c3.3-3.3,2.8-3.4,7.9-7.6l15.7-11.5L65.4,18L62.6,20.2z M24.7,101.1c4.8-0.5,2.7,0.6,6.5-8.6c3.7-9.1,10.1-21.6,16.3-28.1
	c0.7-1.6,6-7.5,7.3-8.9c6.6-7.4,18.2-16.1,27.1-21.3c6.8-4,14.2-7.3,22.3-9.9c14.7-4.9,26.3-5.1,41.3-4c12.5,0.9,10.9,1.6,11.5,0.8
	c0.7-0.9-0.3-1.6-2.4-2.2c-9.4-2.5-35.1-4.8-52.1,2c-8.6,3-20.7,9.2-22.1,9.6L66.3,16.6l2.2-2.2l-2.2-2.8L15.8,61.8l2.7,2.5
	c1.2-1.2,1.3-1.7,2.8-2.4l13.5,13.8C33.6,79.5,23.1,98.2,24.7,101.1z"/>
<path class="st3" d="M63.8,58.1l5.8,5.8c2.1-1.3,28-27.1,29.2-29.2c-6.1,1.9-14.3,6.8-19.1,10c-2.8,1.9-6,4.2-8.3,6.1
	C69.3,52.7,65.1,56,63.8,58.1 M39.1,94.4l29.2-28.9l-5.8-6.2C59.6,61.2,52,71,49.3,75C45.8,80.2,41.2,88,39.1,94.4z M51.8,67.7
	c-0.6,2.2-3.4,5.4-4.9,7.6c-1.6,2.5-3,4.9-4.5,7.7c-1.7,3.2-7.2,13.6-7.1,17.1c2.5-0.1,0.6,0.5,2.3-1.3l23.3-23.4
	c2.5-2.5,6.2-6.8,8.9-8.6c1.8,1,5.4,4.4,6.1,6.4L46,103.1c-1.4,1.4-3.5,2.5-2.8,4.7c2.5-1.8,5.8-5.6,8.3-8.1
	c4.6-4.6,23.9-24.6,26.3-25.6c1.5,1.7,4.5,4.2,5.6,6.1l-16,16.4c5,0.1,11.8-11.7,17.3-14.7c2.4,1.3,4.3,3.8,6,5.7
	c-1.6,3.4-7,6.1-8.3,9.3c2.8,0.1,7.6-5.5,9.3-7.7c1.8,0.8,5.4,4.3,6.4,6.2c-0.9,1.2-1.6,1.9-2.7,3c-2.9,2.8-2.1,2.1-1.7,2.5
	c2.1,1.6,3.4-3.2,4.9-4.9c1.6-1.8,4.4-2.8,6.3-4.8l8.4-8.3c1.3-1.2,2.2-1.6,1.2-3.3L99.8,93.9c-1.2-0.7-0.7-0.4-1.8-1.3
	c-0.6-0.5-1-1-1.7-1.7c-1.5-1.5-2-1.5-2.8-3.5L106,75c1.3-1.2,3.9-2.9,3.2-4.7c-1.3-0.3-1.5,0.8-4,3.3c-2.6,2.6-11.4,11.9-13.4,12.8
	L86,80.5c1.3-2.3,13.1-13.6,16.4-16.9c1.6-1.5,4.7-3.4,4.2-6.4L84.9,79c-2.1-1.3-5.4-4.4-6.2-6.5l24.5-24.3l-0.2-1.4L77.5,71.4
	c-1.8-0.9-5.2-4.4-6.2-6l29.8-29.8c1.4-1.4,0-4.6,0-4.6c-7.5,2.9-14.2,7.1-20.5,10.9L69,50.4c-6.7,6.2-9.3,8.1-15.5,15.7
	C52.7,67.3,53.5,67,51.8,67.7z"/>
<path class="st3" d="M208.5,78.7l11.2-10.6c1.6,1.4,6.3,7,3.4,8.6l4-0.1c-2.5-6-10.3-16.2-13.9-20.4c-1.2-0.5,0.1,0.4-1.3-0.8
	c-0.4-0.4-0.9-0.9-1.3-1.4c-5.9-6.5-10.9-11.5-19.1-16.6c-8.2-5.2-17.4-10.7-28.4-13.8c1,3.8,1.9,1.5,4.3,3.8
	c-1.7,1.6-2.8,1.5-2.5,4.3L169,28c2.9,0.4,6.5,2.4,9,3.5c-1.6,2.6-7.5,7.5-10.5,10.3c-1.9,1.8-2,1.2-2.4,4.3l14.6-13.2
	c2.4,0.4,6.2,3,8.1,4.2l-15.3,14.5c-4.3,3.9-24.5,21-26.3,26.6c0.8-1,14.8-13.1,15.6-13.8L173.9,53c5.3-5,10.3-9.8,15.6-14.7
	c1.7,0.6,5.7,3.4,6.9,5L157.6,80c-0.7,0.9-11.6,10.9-12.4,12.2c4-0.3,18.7-15.4,22.9-19.5l30.1-28.1c2.4,1.4,4.4,3.5,6.3,5.6
	c-4.4,5.5-29.7,26.2-31.1,30.1c3.4,0.2,4.5-2.1,8.9-6.2l24-22.3c2.5,2.3,3.7,3.5,5.6,6.1l-22.2,20.9c4.3,0,7.8-4.7,12.1-8.7
	c3.8-3.6,7.6-7.4,11.4-10.6c1.4,0.9,4.5,5.3,5.1,6.7l-9,8.5c-1.7,1.6-2.1,1.5-3.1,3.7L208.5,78.7z"/>
<path class="st4" d="M133.4,47c-6.8,2.7-3.3,12,3.1,9.6c2.5-0.9,4.3-3.7,3.3-6.7C139.1,47.6,136.4,45.8,133.4,47 M107.4,75.1
	c1.1-0.5,1.4-0.8,2.1-1.4l-2-23.7l13.1-1.9c-2.3,2.6-4,4-5.1,8.3s-0.8,7.8-0.5,12.3c1-0.4,3.5-2.8,4.7-3.8c1.9-1.5,4.2-1.6,6.8-2
	c5.3-0.8,10.6-1.5,15.9-2.3c7.7-1.1,7.3-1.4,12.8,1.5c1.8,0.9,9,4.6,10.5,4.6l-2.2-27.1l-26.6,3.8c0.1,0,0.2,0,0.2,0.1
	s0.1,0.1,0.2,0.1c2.5,1.2,5,2.4,5.1,6.3c-0.3-2.5-3.4-5.5-7.2-5.2c-4,0.3-6.9,3.5-7,7.1c-0.2,5.9,6.6,9,11.7,4.7
	c2.1-1.8,1.4-2.4,2.7-4.4c-0.1,8-11.8,10.9-15.3,3.4c-1.3-2.8-0.9-5.9,1-8.4c1.2-1.6,1.6-1.5,3.1-2.9l-26.1,3.7L107.4,75.1z"/>
<path class="st4" d="M153.9,135.3c-0.9,3.1-2.8,6.1-7.5,6.6c-3.9,0.4-7.5-1.9-8-5.3c-1.3-8.3,12.4-11.2,15.2-3.5
	c-1.1-8-17-6.5-16.5,3C137.5,145.7,154,144.4,153.9,135.3 M142.5,126.4c-5.1,1.7-9,6.8-7.1,12.2c1.6,4.4,7.2,7.6,13.5,5.6
	c5.2-1.6,9.3-6.8,7.2-12.4C154.5,127.4,148.9,124.3,142.5,126.4z"/>
<path class="st4" d="M137.1,101.8c0.3-0.2,1.7-1.7,3.2-2.8c6-4.5,4.9-2.6,3.6-12.7c-0.4-3-2.3-20.3-2.9-21.7l-8.4,1.2L137.1,101.8z"
	/>
<path class="st4" d="M133.4,134.2c-0.1-3,4.4-8.4,10.2-9.6c6.6-1.3,10.3,1.4,13.5,5.1c-0.1-1.4-0.3-2.8-0.5-4.2
	c-0.2-2-0.6-1.7-1.8-2.9c-1.3-1.3-3.3-3.6-4.2-5.5c-1.2-2.7-4.3-30.5-5-35.7l-2-15.8c-0.1-1.3,0.1-1.3-1.1-1.3
	c-0.6,0.9,0,3.1,0.2,4.2l3.9,30.8c0.4,3.8,1.3,14.4,2.5,17.4c0.4,1.2,1.2,1.9,1.9,2.7c0.7,0.7,2.1,1.7,1.2,3
	c-0.9,1.2-2.1,0.3-3.4,0.1c-1.3-0.2-3-0.1-4.6,0.1c-1.5,0.2-2.9,0.6-4.2,1.2s-2.2,1.8-3.4,1.1c-2.2-1.3,0.9-3.1,1.4-6.3
	c0.4-2.5-3.6-30.1-4.2-35l-2.2-17.1c-0.3-0.6,0-0.2-0.4-0.5c-1.2,0.3-0.9,0.2-0.8,1.6l4.4,34.2c0.5,3.9,2.4,14.8,1.7,17.9
	c-1.4,6.2-4.2,6.5-3.8,9.9C132.9,131,133,132.9,133.4,134.2"/>
<polygon class="st4" points="104.6,43.7 162.8,35.3 162.6,30.5 104.3,38.5 "/>
<path class="st4" d="M103.7,31.4l0.2,3.3l58.1-7.9l-0.2-3.6c-4.6-0.9-35.4,3.8-43.5,5.3C113.7,29.4,108.3,30.8,103.7,31.4"/>
<path class="st4" d="M158,137.1c-0.4,3.6-5.5,8.3-11.3,9c-5.5,0.6-11-2.4-12.5-6.1c0,1.3,0.3,3.5,0.5,4.9c0.5,3.6,13.2,5.8,21.3,0
	c0.9-0.7,2.6-1.8,2.6-2.8C158.7,141.5,158.2,137.8,158,137.1"/>
<path class="st4" d="M151.1,121.9c1.6-1.5-2.7-1-3.6-7.8l-0.3-2.2c-0.4,0.3-0.8,1-2.4,2.5c-1,0.8-1.9,1.3-3,2.2
	c-3.9,3.3-2.4,2.6-4.3,5.7c-2.4,3.9,1.4,0.6,5.1-0.2c3.7-0.8,4.9-0.7,7.8,0C151.5,122.2,150.8,122.2,151.1,121.9"/>
<path class="st4" d="M138.2,110.4c1-0.7,1.6-1.5,2.8-2.4c1.1-0.8,2.3-1.6,3.3-2.4c2.7-2.4,1.6-2.8,1.1-8.1c-0.6,0.5-0.9,1.3-2.6,2.6
	C136.3,105,137.3,102.8,138.2,110.4"/>
<text transform="matrix(0.9947 -0.103 0.103 0.9947 35.689 224.8409)" class="st0 st1 st5">GARAGE</text>
<text transform="matrix(0.9947 -0.1025 0.1025 0.9947 163.7526 142.3506)" class="st6 st1 st7">RO</text>
</svg>
